<svg width="42" height="20" viewBox="0 0 42 20" fill="none" xmlns="http://www.w3.org/2000/svg">
<path d="M3.18186 0.45459C1.67777 0.45459 0.45459 1.67777 0.45459 3.18186V16.8182C0.45459 18.3223 1.67777 19.5455 3.18186 19.5455H16.8182C18.3223 19.5455 19.5455 18.3223 19.5455 16.8182V3.18186C19.5455 1.67777 18.3223 0.45459 16.8182 0.45459H3.18186ZM3.18186 16.8182V3.18186H16.8182L16.821 16.8182H3.18186Z" fill="#C3623B"/>
<path d="M25.1819 0.45459C23.6778 0.45459 22.4546 1.67777 22.4546 3.18186V16.8182C22.4546 18.3223 23.6778 19.5455 25.1819 19.5455H38.8182C40.3223 19.5455 41.5455 18.3223 41.5455 16.8182V3.18186C41.5455 1.67777 40.3223 0.45459 38.8182 0.45459H25.1819ZM25.1819 16.8182V3.18186H38.8182L38.821 16.8182H25.1819Z" fill="#C3623B"/>
<path d="M30.631 10.7582L28.8637 9.02504L26.9546 10.975L30.6419 14.5846L37.0496 8.24232L35.1323 6.30322L30.631 10.7582Z" fill="#C3623B"/>
</svg>
