<svg width="20" height="20" viewBox="0 0 20 20" fill="none" xmlns="http://www.w3.org/2000/svg">
<path d="M9.99999 4.09839C9.49141 4.09839 9.00192 4.25139 8.58446 4.54084C8.46106 4.62641 8.42987 4.79656 8.51478 4.9209C8.59973 5.04524 8.76862 5.07665 8.89201 4.99112C9.21861 4.76467 9.60172 4.64498 9.99999 4.64498C11.0792 4.64498 11.9572 5.52959 11.9572 6.61692C11.9572 7.70426 11.0792 8.5889 9.99999 8.5889C8.92074 8.5889 8.04273 7.70426 8.04273 6.61692C8.04273 6.29617 8.11666 5.99039 8.26243 5.70812C8.33157 5.5742 8.27992 5.4092 8.14702 5.33956C8.01408 5.26995 7.85038 5.32193 7.78121 5.45584C7.59742 5.81175 7.50024 6.21325 7.50024 6.61692C7.50028 8.00568 8.62164 9.13549 9.99999 9.13549C11.3783 9.13549 12.4997 8.00568 12.4997 6.61692C12.4997 5.2282 11.3783 4.09839 9.99999 4.09839Z" fill="white" stroke="white" stroke-width="0.2"/>
<path d="M19.2652 18.9075L16.5882 12.4269C16.5461 12.325 16.4473 12.2586 16.3378 12.2586H13.67C14.1889 11.5514 14.6208 10.847 14.9581 10.1553C15.5559 8.92949 15.8589 7.73907 15.8589 6.61702C15.8589 3.36227 13.2307 0.714355 10.0003 0.714355C6.76985 0.714355 4.1417 3.36227 4.1417 6.61699C4.1417 7.73903 4.44475 8.92949 5.04252 10.1552C5.37978 10.8469 5.81168 11.5514 6.33059 12.2586H3.66287C3.55333 12.2586 3.45452 12.325 3.41248 12.4269L1.58827 16.8429C1.53071 16.9822 1.59614 17.1422 1.73445 17.2002C1.76855 17.2145 1.8038 17.2212 1.83855 17.2212C1.94483 17.2212 2.0457 17.1579 2.08905 17.0529L2.34934 16.4228H4.19582L3.23895 18.7392H1.39251L1.66989 18.0677C1.72745 17.9283 1.66201 17.7684 1.52371 17.7104C1.38533 17.6523 1.2266 17.7183 1.16907 17.8577L0.735437 18.9075C0.70058 18.9918 0.709865 19.0882 0.760211 19.1641C0.810485 19.2401 0.895144 19.2858 0.985825 19.2858H19.0148C19.1054 19.2858 19.1901 19.2401 19.2404 19.1641C19.2907 19.0882 19.3001 18.9918 19.2652 18.9075ZM4.68419 6.61699C4.68419 3.66362 7.06899 1.26091 10.0003 1.26091C12.9316 1.26091 15.3164 3.66366 15.3164 6.61699C15.3164 7.85543 14.8893 9.83445 12.9135 12.3564C12.9116 12.3588 12.9098 12.3613 12.9079 12.3637C12.807 12.4923 12.7022 12.6224 12.593 12.7539C11.5073 14.0619 10.4086 15.0171 10.0003 15.3564C9.5931 15.0182 8.4996 14.0679 7.41466 12.7623C7.3028 12.6277 7.1955 12.4946 7.09224 12.363C7.09057 12.3609 7.08901 12.3587 7.08727 12.3566C5.11159 9.83485 4.68419 7.8559 4.68419 6.61699ZM3.84376 12.8052H5.69027L5.01677 14.4356H3.17029L3.84376 12.8052ZM5.42987 18.7392L7.12528 14.6351L11.95 18.7392H5.42987ZM12.7909 18.7392L7.1922 13.9767C7.12611 13.9204 7.03732 13.8993 6.95339 13.9199C6.86938 13.9404 6.80003 14 6.76684 14.0805L4.84234 18.7392H3.82657L4.85293 16.2545C4.88779 16.1701 4.8785 16.0738 4.82815 15.9978C4.77788 15.9219 4.69318 15.8762 4.6025 15.8762H2.57521L2.94453 14.9821H5.1977C5.30724 14.9821 5.40604 14.9157 5.44808 14.8138L6.27785 12.8052H6.74859C6.83031 12.9078 6.91338 13.0105 6.99865 13.1131C8.39822 14.7973 9.77632 15.8785 9.83432 15.9237C9.88321 15.9619 9.94175 15.9809 10.0003 15.9809C10.0588 15.9809 10.1174 15.9618 10.1663 15.9237C10.1982 15.8989 10.629 15.5607 11.2426 14.9821H14.3142C14.464 14.9821 14.5854 14.8598 14.5854 14.7088C14.5854 14.5579 14.464 14.4356 14.3142 14.4356H11.8016C12.1777 14.0546 12.5887 13.6104 13.002 13.1132C13.0873 13.0105 13.1704 12.9079 13.252 12.8052H16.1568L16.8303 14.4356H15.3991C15.2493 14.4356 15.1279 14.5579 15.1279 14.7088C15.1279 14.8598 15.2493 14.9821 15.3991 14.9821H17.0561L17.4254 15.8762H11.8369C11.7237 15.8762 11.6224 15.947 11.5828 16.0539C11.5432 16.1607 11.5736 16.2811 11.6591 16.3559L14.3844 18.7392H12.7909V18.7392ZM15.2119 18.7392L12.5632 16.4228H17.6512L18.6081 18.7392H15.2119Z" fill="white" stroke="white" stroke-width="0.2"/>
</svg>
